<?xml version="1.0" encoding="utf-8"?>
<!-- Generator: Adobe Illustrator 27.5.0, SVG Export Plug-In . SVG Version: 6.00 Build 0)  -->
<svg version="1.1" xmlns="http://www.w3.org/2000/svg" xmlns:xlink="http://www.w3.org/1999/xlink" x="0px" y="0px"
	 viewBox="0 0 750 500" style="enable-background:new 0 0 750 500;" xml:space="preserve">
<g id="BACKGROUND">
	<rect style="fill:#EDFFED;" width="750" height="500"/>
	<g>
		<defs>
			<rect id="SVGID_1_" width="750" height="500"/>
		</defs>
		<clipPath id="SVGID_00000166660033187421071230000008231220268853445025_">
			<use xlink:href="#SVGID_1_"  style="overflow:visible;"/>
		</clipPath>
		<g style="clip-path:url(#SVGID_00000166660033187421071230000008231220268853445025_);">
			<path style="fill:#DBFDD9;" d="M931.035,390.947c-8.341-38.755-45.917-66.321-85.015-72.868
				c-39.098-6.547-79.114,4.334-115.666,19.68c-36.551,15.346-71.204,35.239-108.689,48.139
				c-52.027,17.905-108.406,21.755-162.943,14.472c-37.909-5.063-74.943-15.367-112.762-21.065
				c-99.005-14.916-202.668,2.924-290.992,50.077c-47.372,25.29-133.221,88.779-186.62,94.458l1062.685,16.859V390.947z"/>
		</g>
		
			<circle style="clip-path:url(#SVGID_00000166660033187421071230000008231220268853445025_);fill:#FFFFFF;" cx="572.009" cy="338.051" r="187.408"/>
		<g style="clip-path:url(#SVGID_00000166660033187421071230000008231220268853445025_);">
			<path style="fill:#DBFDD9;" d="M-10.597,144.016c35.82,2.896,71.16-9.191,103.884-24.045
				c32.724-14.854,64.338-32.734,98.887-42.626c55.024-15.753,113.5-10.239,170.732-10.761
				c57.232-0.521,118.247-8.835,161.632-46.165c12.994-11.181,24.393-24.934,40.108-31.782H-10.597V144.016z"/>
		</g>
	</g>
</g>
<g id="OBJECTS">
	<g>
		
			<path style="fill:none;stroke:#DBFDD9;stroke-width:3.0866;stroke-linecap:round;stroke-linejoin:round;stroke-miterlimit:10;" d="
			M496.878,199.115c0,0,85.242-53.727,184.615,19.189"/>
		<g>
			<g>
				<g>
					<path style="fill:#B9F0C3;" d="M407.343,329.635C406.561,224.087,511.48,164.289,577.802,167.93
						c66.322,3.642,165.826,41.509,161.502,165.947c-4.323,124.438-99.301,166.736-166.009,166.009
						c-66.708-0.727-159.449-45.382-166.009-166.009"/>
					<path style="opacity:0.35;fill:#B9F0C3;" d="M407.343,329.635C406.561,224.087,511.48,164.289,577.802,167.93
						c66.322,3.642,165.826,41.509,161.502,165.947c-4.323,124.438-99.301,166.736-166.009,166.009
						c-66.708-0.727-159.449-45.382-166.009-166.009"/>
					<g>
						<path style="fill:#DBFDD9;" d="M575.911,224.447c1.62-1.752,4.307-1.679,5.036-2.409c0.73-0.73,3.504-3.212,3.723-4.307
							c0.219-1.095,1.095-4.38,0.584-5.839c-0.511-1.46-1.314-1.971-2.409-3.066c-1.095-1.095-3.358-1.825-4.015-2.482
							c-0.657-0.657-7.81-1.679-10.511-2.117c-2.701-0.438-10.73,3.577-11.387,3.139c-0.657-0.438-2.92-0.949-3.43-0.949
							c-0.511,0-4.745,0.365-5.402,0.073c-0.657-0.292-3.358-1.168-4.353-1.168c-0.995,0-7.253,2.19-7.691,2.19
							c-0.438,0-4.891-0.73-6.351-0.949c-1.46-0.219-6.424,2.846-6.424,2.846c-3.33,0.79-3.066,4.599-3.066,4.599
							c-1.022-0.073-1.241,5.474-1.022,7.445c0.219,1.971,2.469,1.932,2.246,2.989c-0.224,1.057,0.7,6.621,0.674,7.522
							c-0.026,0.901,3.285,2.993,4.234,3.503c0.949,0.511,3.431,1.533,3.868,2.336c0.438,0.803,1.825,5.183,2.409,5.62
							c0.584,0.438,2.044,1.168,2.847,1.825c0.803,0.657,2.347,3.325,2.57,3.714c0.223,0.389,2.175,3.659,3.197,4.389
							c1.022,0.73,2.993,1.095,3.942,1.168c0.949,0.073,4.818,0.146,6.497,0s3.212-3.212,4.088-3.577
							c0.876-0.365,3.577-0.803,4.672-1.314c1.095-0.511,2.482-2.336,3.139-3.723c0.657-1.387,0.876-1.606,2.701-4.015
							c1.825-2.409,1.387-3.942,1.46-4.598c0.073-0.657,3.139-3.869,4.161-4.818c1.022-0.949,1.095-3.212,1.679-4.964
							C574.16,225.761,574.291,226.199,575.911,224.447z"/>
						<path style="fill:#DBFDD9;" d="M499.157,332.99c-0.766-0.547-4.38-1.533-5.255-2.518c-0.876-0.985-3.066-2.19-4.489-3.285
							c-1.424-1.095-6.022-0.493-7.117-0.493c-1.095,0-4.805-0.813-5.579-0.707c-2.038,0.682-3.728,3.827-3.892,4.21
							c-0.164,0.383-1.642,1.478-1.807,2.135c-0.164,0.657,1.916,2.755,3.266,2.025c0.548,0,3.996,0.967,5.967,1.077
							c1.971,0.109,7.081-1.022,8.907-0.475c1.826,0.547,3.429,0.985,4.634,1.423c1.204,0.438,1.642,1.423,2.299,2.299
							c0.657,0.876,2.299,2.847,3.613,3.066c1.314,0.219,2.409-0.986,2.956-1.752c0.547-0.766-0.657-3.066-1.205-4.38
							C500.909,334.304,499.924,333.538,499.157,332.99z"/>
						<path style="fill:#DBFDD9;" d="M470.878,354.565c0,0-0.408,0.652-1.414,2.933c-1.006,2.281-3.47,9.001-4.031,11.329
							c-0.561,2.328-2.518,7.632-2.08,9.664c0.438,2.032,7.883,10.997,8.869,11.545c0.985,0.547,6.543,8.645,6.241,9.635
							c-0.302,0.99,1.423,7.664,1.971,8.65c0.548,0.986,8.431,6.789,8.212,7.993c-0.219,1.204-1.642,7.555-1.204,9.088
							c0.438,1.533,4.927,9.635,5.037,11.059c0.109,1.423-1.424,7.993-1.752,8.869c-0.328,0.876,0.985,7.665,1.971,9.964
							c0.985,2.299,4.27,5.694,4.489,6.241c0.219,0.547,0.985,4.708,1.533,5.365c0.547,0.657,7.774,5.365,9.197,3.723
							c1.423-1.642,0.657-10.73,1.095-12.153c0.438-1.424,1.314-2.628,1.314-4.051c0-1.423-0.547-4.818,0.876-6.679
							c1.424-1.862,2.628-4.489,3.239-6.064c0.611-1.575-0.72-5.652-0.063-6.451c0.657-0.799,2.177-2.403,3.571-2.974
							c1.394-0.571,4.97-1.701,6.174-3.015c1.205-1.314-0.219-4.256,0.887-6.94c1.106-2.684,6.668-6.418,8.967-8.06
							c2.299-1.643,2.304-4.641,2.714-5.736c0.41-1.094,1.122-3.978,1.964-6.509c0.842-2.531,3.096-11.515,3.096-13.705
							c0-2.19,0.547-4.599,0.985-5.913c0.438-1.314,0.876-3.832,1.01-5.411c0.134-1.579-5.828-3.895-7.311-5.273
							c-1.483-1.378-9.795-1.14-11.656-2.125c-1.862-0.986-7.53-6.25-8.146-8.123c-0.616-1.873-2.255-2.06-3.241-3.155
							c-0.985-1.095-4.161-3.175-5.365-3.942c-1.204-0.767-1.596-2.189-2.841-2.499c-1.246-0.31-3.947-1.96-5.176-2.61
							c-1.229-0.65-8.188-0.256-8.188-0.256s-2.661-1.952-5.832-2.924c-3.171-0.973-4.467,0.165-5.926,0.624
							c-1.459,0.46-5.95,3.129-5.95,3.129s-5.323,0.448-6.71-2.034c-1.387-2.482-3.066-1.752-4.051-3.175
							c-0.986-1.423-2.847-2.956-3.394-3.942c-0.548-0.986-4.27-4.27-4.818-5.256c-0.547-0.986-2.956-3.942-5.037-4.818
							c-2.08-0.876-7.117-1.533-7.445-1.971c-0.329-0.438-2.409-3.942-2.518-4.927c-0.11-0.986,1.314-4.708,1.314-4.708
							s3.175-3.285,4.27-4.27c1.095-0.986,6.022-1.533,7.555-2.081c1.533-0.547,5.037-0.109,6.351,0.11
							c1.314,0.219,2.956,2.847,4.599,3.942c1.642,1.095,4.179,3.835,5.448,3.944c1.269,0.109,5.502-1.425,5.83-2.63
							c0.329-1.204-0.328-3.723,0.767-6.022c1.095-2.299,2.518-4.927,4.161-6.35c1.642-1.423,1.533-4.161,1.72-5.694
							c0.188-1.533,0.62-3.173,6.492-5.146c5.872-1.973,11.57-6.533,12.518-6.825c0.949-0.292,1.679-0.365,2.19-0.657
							c0.511-0.292,3.066-1.752,3.65-3.066c0.584-1.314,0.038-3.265-0.685-4.073c-0.723-0.807-1.067-3.446-1.14-3.957
							c-0.073-0.511,3.431-1.533,4.234-1.898c0.803-0.365,7.979-0.745,8.54-1.387c0.561-0.642,4.672-2.847,4.891-5.255
							c0.219-2.409-3.358-5.256-3.503-5.694c-0.146-0.438-3.285-4.015-3.869-4.088c-0.584-0.073-3.49-2.1-3.91-3.048
							c-0.421-0.948-1.929-2.864-1.491-3.959c0.438-1.095,2.336-2.628,2.336-3.723c0-1.095-0.438-2.628-1.205-3.975
							c-0.766-1.347-3.504-3.471-4.38-4.128c-0.876-0.657-3.504-2.956-4.27-3.942c-0.767-0.985-4.599-2.847-6.022-3.285
							c-1.423-0.438-6.131,2.081-6.898,2.081c-0.766,0-4.27,2.847-4.927,3.613c-0.657,0.766-3.942,1.642-5.146,1.642
							c-1.204,0-6.241,1.752-8.869,2.08c-2.628,0.329-5.255,1.862-7.345,1.936c-2.089,0.075-6.67-2.374-7.108-3.469
							c-0.439-1.095-1.752-4.379-2.3-5.365c-0.548-0.985-2.19-2.847-4.161-4.051c-1.055-0.645-3.359-0.974-5.278-1.142
							c-17.396,21.368-29.589,47.141-34.627,75.394c1.26,2.437,2.582,4.987,2.954,6.094c0.738,2.194,6.84,7.467,8.154,8.891
							c1.314,1.424,0.438,9.198,2.737,12.701c2.299,3.504,4.489,4.27,8.033,3.87c3.544-0.401,7.186,6.313,10.033,6.642
							c2.847,0.328,7.73,0.876,8.54,2.299c0.81,1.423,6.46,7.664,8.759,8.102C461.383,353.575,470.878,354.565,470.878,354.565z"/>
						<path style="fill:#DBFDD9;" d="M706.223,225.754c-0.68-0.37-1.086-0.582-1.086-0.582c-2.847-0.11-8.237,2.268-10.756,3.144
							c-2.518,0.876-4.27,1.642-4.818,2.628c-0.548,0.985-2.737,1.533-4.818,1.971c-2.08,0.438-3.285,0.986-3.942,1.643
							c-0.657,0.657-1.44,0.876-2.847,2.19c-1.407,1.314-1.861,2.409-4.161,3.613c-2.299,1.204-8.339,4.011-9.734,4.308
							c-1.153,0.246-4.071,0.335-5.976,0.152c-0.709-0.854-2.19-2.65-2.52-3.146c-0.438-0.657-3.777-3.066-5.42-3.34
							c-1.642-0.273-5.091-0.187-6.515-0.312c-1.424-0.126-3.23-0.235-5.201-0.454c-1.971-0.219-4.215-0.383-6.022-0.273
							c-1.807,0.109-3.175,0.985-4.599,1.588c-1.424,0.602-7.391,1.04-8.814,1.15c-1.423,0.11-5.858,2.026-6.679,2.628
							c-0.821,0.602-0.985,6.186-2.354,6.734c-1.369,0.548-4.161,2.519-4.161,3.449c0,0.93,0.876,3.723,1.259,4.27
							c0.383,0.548,4.051,1.04,4.708,1.095c0.657,0.055,2.683-1.423,3.996-2.245c1.314-0.821,5.748-4.434,6.296-4.872
							c0.548-0.438,0.985-1.807,2.956-1.807c1.971,0,2.464,1.642,3.833,2.135c1.368,0.493,4.599,2.08,5.912,2.354
							c0.08,0.016,0.205,0.033,0.368,0.05c0.211,0.653,0.448,1.197,0.563,1.428c0.328,0.657,0.02,4.599-0.975,5.694
							c-0.996,1.095-3.514,2.111-5.485,2.807c-1.971,0.697-5.219-2.361-7.491-2.19c-2.272,0.171-5.21,0.478-6.634,1.682
							c-1.423,1.204-5.036,5.146-5.584,6.132c-0.547,0.985-1.971,3.175-3.066,3.285c-1.095,0.11-5.256,0.548-6.46,2.08
							c-1.204,1.533-2.299,3.285-2.628,5.365c-0.328,2.08-1.752,6.132-2.299,6.679c-0.547,0.547-1.53,2.599-2.73,4.564
							c-1.199,1.965-0.497,5.893,0,6.823c0.497,0.93,3.872,0.926,5.436,1.065c1.564,0.139,5.923-2.611,8.098-3.913
							c2.175-1.301,7.81-1.533,8.905-1.533c1.095,0,7.883-0.328,8.978-1.423c1.095-1.095,5.584-5.256,7.336-5.256
							c1.752,0,7.227,2.847,8.321,3.613c1.095,0.766,4.93,0.876,6.516,0.876c1.586,0,3.01,0.985,4.323,2.518
							c1.314,1.533,4.27,2.518,6.789,3.285c2.518,0.767,4.896,2.336,5.256,3.723c0.36,1.387-2.299,2.19-4.052,2.19
							c-1.752,0-3.394-1.095-5.255-1.204c-1.861-0.109-3.504,0.876-5.146,1.204c-1.643,0.329-5.907,1.331-6.9,1.282
							c-0.993-0.05-4.597-1.172-5.583-1.611c-0.985-0.438-3.723-2.846-4.817-3.504c-1.095-0.657-4.161-2.737-6.788-2.737
							c-2.628,0-4.818-0.329-6.898,0.876c-2.08,1.204-4.161,2.081-5.912,2.628c-1.752,0.548-7.336,2.08-10.511,2.956
							c-3.175,0.876-7.471,2.15-8.757,4.38c-1.286,2.23-4.451,6.543-5.266,7.505c-0.815,0.962-7.982,8.764-8.531,11.086
							c-0.549,2.322,1.86,7.14,1.422,8.344c-0.438,1.204-1.752,7.883-0.547,10.292c1.204,2.409,4.38,4.379,5.475,5.803
							c1.095,1.423,5.204,9.292,8.624,9.957c3.42,0.664,6.72-1.745,9.223-1.745c2.504,0,4.489-2.409,6.46-2.409
							c1.971,0,3.985-1.262,5.365-0.109c1.38,1.153,3.394,3.94,5.803,4.379c2.409,0.439,6.022,3.505,5.693,5.147
							c-0.328,1.642-0.328,8.431-0.109,8.759c0.219,0.328,3.723,7.227,3.832,8.321c0.11,1.095-1.532,6.338-2.299,8.863
							c-0.766,2.524,2.518,7.671,3.394,9.313c0.876,1.642,1.423,2.518,1.423,4.27c0,1.752,2.847,5.912,3.394,7.007
							c0.547,1.095,0.766,4.927,1.423,6.789c0.657,1.861,1.971,4.708,3.175,6.022c1.205,1.314,5.923,4.979,6.898,6.022
							c0.975,1.043,6.11,0.443,7.502-0.19c1.391-0.634,7.567-5.583,7.87-6.03c0.303-0.447,2.257-9.218,2.476-10.532
							c0.219-1.314,6.771-10.338,6.342-11.465c-0.429-1.127,0.337-9.777,0.337-10.434c0-0.657,2.409-4.818,2.518-5.365
							c0.109-0.548,0.219-5.146,0.219-6.022c0-0.876,5.365-12.263,6.898-13.577c1.533-1.314,10.397-7.376,11.564-8.492
							c1.167-1.116,2.999-10.341,2.999-10.888c0-0.548-1.971-3.285-2.518-3.613c-0.547-0.328-6.021-1.645-7.007-2.41
							c-0.986-0.766-6.241-1.665-6.757-2.013c-0.516-0.349-5.355-5.156-5.693-5.623c-0.339-0.467-2.879-5.83-2.879-6.597
							c0-0.767-0.438-6.351,0.438-6.46c0.876-0.109,2.547-1.157,2.701-0.538c0.154,0.618,1.569,4.152,3.102,5.247
							c1.533,1.095,6.869,4.489,6.898,5.693c0.029,1.204,4.428,4.066,5.989,4.314c1.56,0.248,12.037-1.578,13.49-2.366
							c1.452-0.788,4.98-4.062,5.19-4.671c0.209-0.61-0.799-4.721-1.566-5.16c-0.766-0.438-4.818-1.642-5.803-2.081
							c-0.985-0.438-2.816-2.822-4.029-3.394c-1.213-0.572-3.088-2.409-3.307-3.394c-0.219-0.986,0.219-4.927,0.766-4.927
							c0.548,0,2.847,0.219,3.723,0.657c0.876,0.438,2.695,2.027,3.503,2.372c0.808,0.344,3.067,2.993,4.49,3.541
							c1.424,0.547,9.745,0.657,10.621,0.985c0.876,0.329,5.584,2.299,6.132,2.299c0.547,0,4.526,2.8,5.904,3.07
							c1.378,0.27,5.921,1.857,7.454,1.09c0.682-0.341,1.752-0.855,2.828-1.465C738.926,283.269,727.772,251.802,706.223,225.754z"
							/>
						<path style="fill:#DBFDD9;" d="M690.44,393.576c0-0.438,0.949-3.066,1.168-3.869c0.219-0.803,1.095-2.117,1.095-2.847
							c0-0.73,0.292-2.409,0-2.92c-0.292-0.511-2.92-1.825-3.285-1.679c-0.365,0.146-2.701,1.314-2.773,1.533
							c-0.073,0.219-0.657,2.628-1.095,2.847c-0.438,0.219-0.755,2.72-1.533,3.066c-0.657,0.292-1.387,3.358-1.168,3.577
							c0.219,0.219,1.387,1.971,1.168,2.993c-0.219,1.022-0.803,1.898,0,2.482c0.803,0.584,2.409,1.898,3.65,1.825
							c1.241-0.073,2.409-2.19,2.847-3.066C690.951,396.642,690.44,394.014,690.44,393.576z"/>
						<path style="fill:#DBFDD9;" d="M585.985,239.995c-0.584-0.292-4.307-2.044-5.474-1.971c-1.168,0.073-4.332,3.682-4.599,3.941
							c-1.553,1.514-1.241,4.964,0,5.767c1.241,0.803,2.773,0.584,3.357,1.022c0.584,0.438,1.387,3.066,2.409,3.577
							c1.022,0.511,5.182,0,6.131-0.949c0.949-0.949,1.168-3.65,1.241-5.036c0.073-1.387-1.752-2.19-2.044-3.212
							C586.715,242.112,586.568,240.287,585.985,239.995z"/>
						<path style="fill:#DBFDD9;" d="M596.906,268.5c0,0.383,0.274,2.354,0.767,2.765c0.492,0.411,3.011-0.411,3.449-0.493
							c0.438-0.082,2.464-0.328,2.601-0.657c0.137-0.328,0.794-1.724,0.657-2.381c-0.137-0.657-0.931-1.013-0.849-1.588
							c0.082-0.575-0.191-1.697-0.657-2.518c-0.465-0.821-1.232-0.985-1.341-1.122c-0.11-0.137-1.533-0.767-1.67-1.04
							c-0.137-0.274-0.219-1.122-0.383-1.232c-0.164-0.11-0.798-0.709-1.177-0.876c-0.931-0.41-1.342,0.219-1.342,0.356
							c0,0.137,0.027,1.04-0.164,1.232c-0.191,0.192-0.52,1.779-0.52,2.272c0,0.493,1.095,0.739,1.286,1.232
							c0.191,0.493,0.11,1.286-0.246,1.889C596.961,266.939,596.906,268.116,596.906,268.5z"/>
					</g>
				</g>
			</g>
		</g>
	</g>
	<g>
		<g>
			<g>
				<g>
					<g>
						<path style="fill:#DA5882;" d="M594.342,257.601c-3.969-16.376-19.804-30.253-36.545-28.34
							c-9.889,1.13-18.696,7.377-24.624,15.373c-2.593,3.499-4.353,6.034-5.702,8.59c-1.43-2.515-3.265-4.995-5.964-8.411
							c-6.169-7.812-15.163-13.787-25.082-14.614c-16.792-1.401-32.194,12.953-35.661,29.444
							c-3.467,16.491,2.985,33.816,13.329,47.119c10.343,13.303,27.475,30.277,56.139,36.385
							c18.749-4.623,42.294-24.429,52.227-38.042C592.39,291.493,598.31,273.977,594.342,257.601z"/>
					</g>
				</g>
			</g>
			<g>
				<g>
					<g>
						
							<path style="fill:none;stroke:#072420;stroke-width:1.2;stroke-linecap:round;stroke-linejoin:round;stroke-miterlimit:10;" d="
							M569.411,310.405c3.628-3.503,6.726-6.981,8.985-10.078c8.352-11.447,13.331-26.178,9.994-39.95
							c-3.338-13.772-16.656-25.443-30.735-23.834"/>
					</g>
				</g>
			</g>
		</g>
		<g>
			<g>
				<path style="fill:#EDB44E;" d="M679.102,200.786c-4.674,16.209-21.603,25.56-37.812,20.886
					c-16.209-4.674-25.56-21.603-20.886-37.811c4.674-16.209,21.603-25.56,37.811-20.886
					C674.424,167.649,683.775,184.577,679.102,200.786z"/>
				<g>
					<path style="fill:#072420;" d="M643.799,184.568c-0.698,2.087-2.956,3.213-5.044,2.514c-2.087-0.699-3.213-2.957-2.514-5.044
						c0.698-2.087,2.957-3.213,5.044-2.515C643.372,180.223,644.498,182.481,643.799,184.568z"/>
					<path style="fill:#072420;" d="M666.573,191.135c-0.698,2.087-2.956,3.213-5.044,2.515c-2.087-0.699-3.213-2.957-2.514-5.044
						c0.698-2.087,2.956-3.213,5.044-2.515C666.145,186.79,667.271,189.048,666.573,191.135z"/>
				</g>
				<path style="fill:#FFFFFF;" d="M659.047,199.931c-12.314,2.867-21.211-6.117-21.211-6.117s-3.767,10.288,7.578,13.559
					C656.758,210.645,659.047,199.931,659.047,199.931z"/>
			</g>
			
				<path style="fill:none;stroke:#072420;stroke-width:1.2978;stroke-linecap:round;stroke-linejoin:round;stroke-miterlimit:10;" d="
				M658.216,162.975c16.209,4.674,25.56,21.603,20.886,37.812c-4.674,16.209-21.603,25.56-37.812,20.886"/>
		</g>
	</g>
	<g>
		<defs>
			<rect id="SVGID_00000150793340831212238880000016856525613186860733_" width="750" height="500"/>
		</defs>
		<clipPath id="SVGID_00000144321766544941207570000006195846359891811976_">
			<use xlink:href="#SVGID_00000150793340831212238880000016856525613186860733_"  style="overflow:visible;"/>
		</clipPath>
		<g style="clip-path:url(#SVGID_00000144321766544941207570000006195846359891811976_);">
			<path style="fill:#C8EC61;" d="M702.929,361.169c0.38,0.167,0.764,0.325,1.136,0.489c11.831,5.129,23.063,10.491,32.178,19.648
				c10.078,10.124,15.61,23.896,19.394,37.69c0.04,0.15,0.082,0.292,0.122,0.443c3.16,11.622,5.118,22.979,8.633,34.284
				c0.016,0.433,0.015,0.861,0.012,1.298c0.013,0.068,0.007,0.139,0.001,0.21c-0.204-0.416-0.419-0.827-0.637-1.229
				c-0.043-0.088-0.081-0.164-0.129-0.236c-1.013-1.914-2.128-3.77-3.319-5.563c-0.345-0.537-0.703-1.061-1.062-1.584
				c-13.099-18.956-33.351-32.312-45.359-51.979c-3.091-5.057-5.585-10.474-7.423-16.104c-1.793-5.469-2.979-11.141-3.496-16.876
				C702.954,361.497,702.947,361.33,702.929,361.169z"/>
			<path style="fill:#072420;" d="M703.295,360.63c0.256,0.343,0.513,0.686,0.769,1.028c5.513,7.379,10.998,14.839,16.429,22.354
				c8.036,11.112,15.952,22.337,23.665,33.566c5.616,8.17,10.564,15.602,14.253,23.815c0.861,1.907,1.66,3.884,2.436,5.798
				c0.883,2.188,1.782,4.408,2.79,6.575c0.003,0.019,0.01,0.049,0.029,0.074c0.016,0.033,0.027,0.055,0.046,0.079
				c0.214,0.492,0.448,0.982,0.695,1.458c0.001,0.611-0.007,1.219-0.025,1.832c-1.339-2.48-2.461-5.087-3.521-7.691
				c-0.188-0.438-0.364-0.881-0.543-1.315c-0.085-0.23-0.182-0.454-0.276-0.686c-0.771-1.903-1.57-3.881-2.418-5.774
				c-3.659-8.139-8.588-15.546-14.18-23.681c-8.005-11.657-16.236-23.318-24.602-34.851c-5.239-7.249-10.535-14.435-15.865-21.551
				c-0.124-0.17-0.256-0.343-0.38-0.513c-0.143-0.195-0.097-0.461,0.089-0.607C702.883,360.397,703.153,360.435,703.295,360.63z"/>
			<g>
				<path style="fill:#C8EC61;" d="M710.436,408.818c10.908,3.939,21.31,9.49,30.079,17.072c7.686,6.646,14.463,14.885,20.347,23.63
					c0.952,1.428,1.897,2.872,2.805,4.321c0.016,0.033,0.027,0.055,0.046,0.079c0.019,0.025,0.038,0.049,0.054,0.082
					c0.213,0.337,0.426,0.674,0.636,1.019c0.013,0.068,0.007,0.139,0.001,0.21c0.011,0.049,0.005,0.093,0.004,0.147
					c0.001,0.611-0.007,1.219-0.025,1.832c0.001,0.292-0.007,0.581-0.023,0.867c-0.011,0.352-0.019,0.695-0.046,1.041
					c-0.019,0.641-0.064,1.281-0.118,1.918c-4.179-2.194-8.858-3.593-13.397-4.972c-9.128-2.775-18.227-5.767-26.747-10.056
					c-8.519-4.289-16.486-9.928-22.49-17.338c-6.152-7.588-10.024-16.702-13.602-25.825c-0.275-0.714-0.553-1.419-0.837-2.136
					c-0.075-0.208-0.158-0.418-0.24-0.629C694.633,404.408,702.095,405.793,710.436,408.818z"/>
				<path style="fill:#072420;" d="M687.823,400.822c1.279,2.733,3.504,4.943,5.664,6.966
					c13.567,12.711,29.505,22.961,44.917,32.886c8.269,5.314,16.804,10.811,24.9,16.631c0.358,0.259,0.71,0.507,1.057,0.771
					c-0.011,0.352-0.019,0.695-0.046,1.041c-0.491-0.377-1-0.752-1.513-1.118c-8.074-5.804-16.612-11.292-24.864-16.601
					c-15.442-9.944-31.418-20.217-45.039-32.983c-1.773-1.663-3.594-3.452-4.938-5.57c-0.34-0.526-0.651-1.079-0.92-1.654
					c-0.078-0.172-0.041-0.36,0.083-0.482c0.033-0.043,0.08-0.073,0.123-0.094C687.463,400.517,687.716,400.603,687.823,400.822z"/>
			</g>
		</g>
		<g style="clip-path:url(#SVGID_00000144321766544941207570000006195846359891811976_);">
			<path style="fill:#C8EC61;" d="M273.538,430.332c0.349,0.225,0.702,0.443,1.043,0.664c10.862,6.95,21.095,14.035,28.632,24.528
				c8.334,11.602,11.599,26.08,13.135,40.301c0.015,0.155,0.035,0.302,0.05,0.456c1.266,11.977,1.388,23.501,3.054,35.222
				c-0.054,0.43-0.122,0.853-0.195,1.283c0.002,0.07-0.015,0.139-0.033,0.208c-0.135-0.443-0.282-0.883-0.432-1.315
				c-0.028-0.093-0.053-0.175-0.09-0.253c-0.695-2.051-1.499-4.062-2.389-6.021c-0.255-0.585-0.525-1.159-0.796-1.733
				c-9.908-20.802-27.77-37.218-36.488-58.548c-2.245-5.485-3.843-11.23-4.759-17.082c-0.897-5.685-1.164-11.473-0.76-17.217
				C273.51,430.659,273.53,430.494,273.538,430.332z"/>
			<path style="fill:#072420;" d="M273.986,429.858c0.198,0.379,0.397,0.759,0.595,1.138c4.266,8.164,8.491,16.403,12.653,24.688
				c6.161,12.251,12.185,24.595,18.009,36.91c4.241,8.962,7.941,17.087,10.272,25.783c0.545,2.02,1.02,4.099,1.48,6.113
				c0.523,2.301,1.056,4.636,1.706,6.936c0,0.019,0.003,0.05,0.017,0.078c0.011,0.035,0.018,0.058,0.032,0.086
				c0.133,0.52,0.285,1.041,0.453,1.55c-0.097,0.603-0.201,1.202-0.317,1.805c-0.926-2.662-1.618-5.414-2.249-8.154
				c-0.115-0.462-0.219-0.928-0.326-1.385c-0.048-0.24-0.107-0.477-0.163-0.722c-0.457-2.002-0.931-4.082-1.466-6.086
				c-2.314-8.618-5.999-16.717-10.222-25.639c-6.043-12.784-12.309-25.609-18.728-38.329c-4.016-7.991-8.098-15.93-12.225-23.805
				c-0.095-0.188-0.198-0.379-0.294-0.567c-0.11-0.215-0.022-0.471,0.185-0.585C273.616,429.563,273.876,429.643,273.986,429.858z"
				/>
			<g>
				<path style="fill:#C8EC61;" d="M273.349,478.568c10.14,5.628,19.523,12.768,26.971,21.65
					c6.528,7.787,11.904,17.001,16.318,26.573c0.712,1.561,1.415,3.138,2.08,4.713c0.011,0.035,0.018,0.058,0.032,0.086
					c0.015,0.027,0.03,0.055,0.04,0.09c0.156,0.367,0.313,0.733,0.465,1.107c0.002,0.07-0.015,0.139-0.033,0.208
					c0.003,0.05-0.01,0.092-0.019,0.146c-0.097,0.603-0.201,1.202-0.317,1.805c-0.046,0.288-0.1,0.572-0.161,0.852
					c-0.067,0.345-0.13,0.683-0.211,1.02c-0.121,0.629-0.268,1.254-0.423,1.875c-3.776-2.833-8.171-4.96-12.433-7.045
					c-8.569-4.195-17.074-8.6-24.801-14.193s-14.692-12.43-19.437-20.703c-4.863-8.472-7.232-18.087-9.309-27.663
					c-0.158-0.748-0.32-1.489-0.486-2.242c-0.04-0.217-0.089-0.438-0.137-0.659C258.452,471.694,265.598,474.251,273.349,478.568z"
					/>
				<path style="fill:#072420;" d="M252.301,467.068c0.827,2.902,2.671,5.438,4.48,7.78c11.366,14.712,25.465,27.373,39.097,39.629
					c7.315,6.565,14.864,13.353,21.928,20.389c0.312,0.313,0.62,0.614,0.921,0.93c-0.067,0.345-0.13,0.683-0.211,1.02
					c-0.424-0.451-0.868-0.902-1.315-1.345c-7.045-7.017-14.598-13.797-21.898-20.354c-13.658-12.28-27.792-24.969-39.202-39.744
					c-1.485-1.925-2.997-3.981-3.987-6.286c-0.251-0.573-0.471-1.169-0.644-1.779c-0.049-0.183,0.017-0.362,0.158-0.463
					c0.04-0.037,0.09-0.059,0.137-0.073C251.994,466.709,252.23,466.835,252.301,467.068z"/>
			</g>
		</g>
	</g>
	<g>
		<g>
			<g>
				<path style="fill:#EDB44E;" d="M290.099,385.269l-17.284,32.435c-1.154,2.166-3.846,2.987-6.012,1.832l-3.616-1.927
					c-2.166-1.154-2.987-3.846-1.832-6.013l17.284-32.435c1.154-2.166,3.846-2.986,6.012-1.832l3.616,1.927
					C290.433,380.411,291.253,383.103,290.099,385.269z"/>
				<g>
					<path style="fill:#072420;" d="M264.423,412.054c0.357,0.19,0.492,0.634,0.302,0.991c-0.19,0.357-0.634,0.492-0.991,0.302
						c-0.357-0.19-0.492-0.634-0.302-0.991C263.622,411.999,264.066,411.864,264.423,412.054z"/>
					<path style="fill:#072420;" d="M268.794,410.687c0.357,0.19,0.492,0.634,0.302,0.991c-0.19,0.357-0.634,0.492-0.991,0.302
						c-0.357-0.19-0.492-0.634-0.302-0.991C267.993,410.632,268.437,410.497,268.794,410.687z"/>
					<path style="fill:#072420;" d="M266.669,407.059c0.357,0.19,0.492,0.634,0.302,0.991c-0.19,0.357-0.634,0.492-0.991,0.302
						c-0.357-0.19-0.492-0.634-0.302-0.991S266.312,406.869,266.669,407.059z"/>
					<path style="fill:#072420;" d="M272.937,410.447c0.357,0.19,0.492,0.634,0.302,0.991c-0.19,0.357-0.634,0.492-0.991,0.302
						c-0.357-0.19-0.492-0.634-0.302-0.991C272.136,410.392,272.58,410.257,272.937,410.447z"/>
					<path style="fill:#072420;" d="M270.091,414.941c0.357,0.19,0.492,0.634,0.302,0.991c-0.19,0.357-0.634,0.492-0.992,0.302
						c-0.357-0.19-0.492-0.634-0.302-0.991C269.289,414.885,269.733,414.75,270.091,414.941z"/>
				</g>
				<g>
					<path style="fill:#072420;" d="M280.173,382.214c0.357,0.19,0.801,0.055,0.991-0.302c0.19-0.357,0.055-0.801-0.302-0.991
						c-0.357-0.19-0.801-0.055-0.991,0.302C279.68,381.58,279.815,382.024,280.173,382.214z"/>
					<path style="fill:#072420;" d="M277.413,387.683c0.357,0.19,0.801,0.055,0.991-0.302s0.055-0.801-0.302-0.991
						c-0.357-0.19-0.801-0.055-0.991,0.302C276.921,387.049,277.056,387.493,277.413,387.683z"/>
					<path style="fill:#072420;" d="M281.476,386.605c0.357,0.19,0.801,0.055,0.991-0.302c0.19-0.357,0.055-0.801-0.302-0.991
						c-0.357-0.19-0.801-0.055-0.991,0.302C280.983,385.971,281.119,386.415,281.476,386.605z"/>
					<path style="fill:#072420;" d="M285.729,385.309c0.357,0.19,0.801,0.055,0.991-0.302c0.19-0.357,0.055-0.801-0.302-0.992
						c-0.357-0.19-0.801-0.055-0.992,0.302C285.237,384.675,285.372,385.119,285.729,385.309z"/>
					<path style="fill:#072420;" d="M283.703,390.136c0.357,0.19,0.801,0.055,0.991-0.302c0.19-0.357,0.055-0.801-0.302-0.991
						c-0.357-0.19-0.801-0.055-0.991,0.302C283.21,389.502,283.345,389.946,283.703,390.136z"/>
				</g>
			</g>
			<g>
				<path style="fill:#EDB44E;" d="M256.264,397.388l33.947,14.086c2.267,0.941,4.868-0.135,5.808-2.402l1.57-3.785
					c0.941-2.267-0.134-4.868-2.402-5.809l-33.947-14.086c-2.267-0.941-4.868,0.134-5.808,2.402l-1.571,3.785
					C252.922,393.847,253.997,396.447,256.264,397.388z"/>
				
					<rect x="268.475" y="393.436" transform="matrix(-0.9236 -0.3832 0.3832 -0.9236 378.1252 872.419)" style="fill:none;stroke:#072420;stroke-width:0.7343;stroke-linecap:round;stroke-linejoin:round;stroke-miterlimit:10;" width="14.986" height="10.213"/>
				<g>
					<path style="fill:#072420;" d="M293.107,401.78c-0.155,0.374,0.022,0.803,0.396,0.958c0.374,0.155,0.803-0.022,0.958-0.396
						c0.155-0.374-0.022-0.803-0.396-0.958C293.691,401.229,293.262,401.406,293.107,401.78z"/>
					<path style="fill:#072420;" d="M288.861,403.5c-0.155,0.374,0.022,0.803,0.396,0.958c0.374,0.155,0.802-0.022,0.958-0.396
						c0.155-0.374-0.022-0.803-0.396-0.958C289.445,402.948,289.017,403.126,288.861,403.5z"/>
					<path style="fill:#072420;" d="M288.2,399.348c-0.155,0.374,0.022,0.803,0.396,0.958c0.374,0.155,0.803-0.022,0.958-0.396
						c0.155-0.374-0.022-0.803-0.396-0.958C288.784,398.796,288.355,398.974,288.2,399.348z"/>
					<path style="fill:#072420;" d="M285.509,405.944c-0.155,0.374,0.022,0.803,0.396,0.958c0.374,0.155,0.803-0.022,0.958-0.396
						c0.155-0.374-0.022-0.803-0.396-0.958C286.093,405.393,285.664,405.57,285.509,405.944z"/>
					<path style="fill:#072420;" d="M290.561,407.609c-0.155,0.374,0.022,0.803,0.396,0.958c0.374,0.155,0.803-0.022,0.958-0.396
						c0.155-0.374-0.022-0.803-0.396-0.958C291.145,407.058,290.716,407.235,290.561,407.609z"/>
				</g>
				<g>
					<path style="fill:#072420;" d="M261.993,388.726c-0.155,0.374-0.584,0.551-0.958,0.396c-0.374-0.155-0.551-0.584-0.396-0.958
						c0.155-0.374,0.584-0.551,0.958-0.396C261.971,387.923,262.148,388.352,261.993,388.726z"/>
					<path style="fill:#072420;" d="M267.597,391.199c-0.155,0.374-0.584,0.551-0.958,0.396c-0.374-0.155-0.551-0.584-0.396-0.958
						c0.155-0.374,0.584-0.551,0.958-0.396C267.575,390.397,267.753,390.825,267.597,391.199z"/>
					<path style="fill:#072420;" d="M263.774,392.945c-0.155,0.374-0.584,0.551-0.958,0.396c-0.374-0.155-0.551-0.584-0.396-0.958
						c0.155-0.374,0.584-0.551,0.958-0.396C263.752,392.143,263.93,392.572,263.774,392.945z"/>
					<path style="fill:#072420;" d="M259.665,394.645c-0.155,0.374-0.584,0.551-0.958,0.396c-0.374-0.155-0.551-0.584-0.396-0.958
						c0.155-0.374,0.584-0.551,0.958-0.396C259.643,393.842,259.82,394.271,259.665,394.645z"/>
					<path style="fill:#072420;" d="M264.296,397.087c-0.155,0.374-0.584,0.551-0.958,0.396c-0.374-0.155-0.551-0.584-0.396-0.958
						c0.155-0.374,0.584-0.551,0.958-0.396C264.273,396.284,264.451,396.713,264.296,397.087z"/>
				</g>
			</g>
		</g>
		<g>
			<g>
				<circle style="fill:#DA5882;" cx="542.503" cy="180.047" r="13.466"/>
				<path style="fill:#FFFFFF;" d="M551.75,178.024h-7.224v-7.225c0-1.117-0.906-2.022-2.023-2.022
					c-1.117,0-2.023,0.906-2.023,2.022v7.225h-7.224c-1.117,0-2.023,0.906-2.023,2.022v0c0,1.117,0.906,2.023,2.023,2.023h7.224
					v7.224c0,1.117,0.906,2.023,2.023,2.023c1.117,0,2.023-0.906,2.023-2.023v-7.224h7.224c1.117,0,2.023-0.906,2.023-2.023v0
					C553.773,178.93,552.867,178.024,551.75,178.024z"/>
			</g>
			<g>
				
					<ellipse transform="matrix(0.1608 -0.987 0.987 0.1608 -50.8482 888.198)" style="fill:#DA5882;" cx="496.878" cy="474" rx="12.137" ry="12.137"/>
				<path style="fill:#FFFFFF;" d="M505.212,472.177h-6.512v-6.512c0-1.007-0.816-1.823-1.823-1.823
					c-1.007,0-1.823,0.816-1.823,1.823v6.512h-6.511c-1.007,0-1.823,0.816-1.823,1.823v0c0,1.007,0.816,1.823,1.823,1.823h6.511
					v6.512c0,1.007,0.816,1.823,1.823,1.823c1.007,0,1.823-0.816,1.823-1.823v-6.512h6.512c1.007,0,1.823-0.816,1.823-1.823v0
					C507.035,472.993,506.219,472.177,505.212,472.177z"/>
			</g>
			<g>
				
					<ellipse transform="matrix(0.1387 -0.9903 0.9903 0.1387 -381.2648 434.6852)" style="fill:#DA5882;" cx="59.271" cy="436.535" rx="12.137" ry="12.137"/>
				<path style="fill:#FFFFFF;" d="M67.606,434.712h-6.512V428.2c0-1.007-0.816-1.823-1.823-1.823c-1.007,0-1.823,0.816-1.823,1.823
					v6.512h-6.511c-1.007,0-1.823,0.816-1.823,1.823v0c0,1.007,0.816,1.823,1.823,1.823h6.511v6.512
					c0,1.007,0.816,1.823,1.823,1.823c1.007,0,1.823-0.816,1.823-1.823v-6.512h6.512c1.007,0,1.823-0.816,1.823-1.823v0
					C69.429,435.528,68.613,434.712,67.606,434.712z"/>
			</g>
			<g>
				
					<ellipse transform="matrix(0.6517 -0.7585 0.7585 0.6517 53.7834 638.1841)" style="fill:#DA5882;" cx="721.792" cy="260.529" rx="13.92" ry="13.92"/>
				<path style="fill:#FFFFFF;" d="M731.351,258.438h-7.468v-7.468c0-1.155-0.936-2.091-2.091-2.091
					c-1.155,0-2.091,0.936-2.091,2.091v7.468h-7.468c-1.155,0-2.091,0.936-2.091,2.091v0c0,1.155,0.936,2.091,2.091,2.091h7.468
					v7.468c0,1.155,0.936,2.091,2.091,2.091c1.155,0,2.091-0.936,2.091-2.091v-7.468h7.468c1.155,0,2.091-0.936,2.091-2.091v0
					C733.442,259.374,732.506,258.438,731.351,258.438z"/>
			</g>
		</g>
	</g>
	<g>
		<g>
			<polygon style="fill:#3D998B;" points="377.944,265.5 384.601,267.707 378.083,269.856 375.573,276.735 373.009,269.902 
				366.709,267.871 373.407,265.541 375.737,258.842 			"/>
			<polygon style="fill:#3D998B;" points="710.358,190.418 717.015,192.625 710.497,194.774 707.987,201.653 705.423,194.82 
				699.122,192.788 705.821,190.459 708.15,183.76 			"/>
		</g>
		<polygon style="fill:#3D998B;" points="714.895,453.993 721.552,456.201 715.034,458.35 712.524,465.229 709.961,458.396 
			703.66,456.364 710.358,454.035 712.688,447.336 		"/>
	</g>
	<g>
		<defs>
			<rect id="SVGID_00000038413572854543154940000000905824832623137156_" x="0.655" y="0.222" width="750" height="500"/>
		</defs>
		<clipPath id="SVGID_00000018222547301664590570000013921982256041304479_">
			<use xlink:href="#SVGID_00000038413572854543154940000000905824832623137156_"  style="overflow:visible;"/>
		</clipPath>
		<g style="clip-path:url(#SVGID_00000018222547301664590570000013921982256041304479_);">
			<g>
				<g>
					
						<path style="fill:none;stroke:#072420;stroke-width:1.2;stroke-linecap:round;stroke-linejoin:round;stroke-miterlimit:10;" d="
						M501.213,286.861c5.697-1.318,11.598,1.014,16.662,3.938c4.522,2.61,8.826,5.807,11.828,10.079
						c7.549,10.743,5.293,25.318,8.362,38.085c1.849,7.694,5.956,15.105,12.517,19.528c6.561,4.423,15.772,5.291,22.366,0.917
						c3.723-2.47,6.304-6.275,8.958-9.869c2.552-3.454,5.255-6.796,8.1-10.013c2.706-3.06,5.73-6.126,9.648-7.28
						c4.853-1.428,9.981,0.352,14.94,1.35"/>
					
						<path style="fill:none;stroke:#072420;stroke-width:1.2;stroke-linecap:round;stroke-linejoin:round;stroke-miterlimit:10;" d="
						M606.347,331.606c6.705-1.979,12.555-6.701,15.905-12.837"/>
				</g>
				<g>
					<circle style="fill:#072420;" cx="499.238" cy="284.016" r="18.317"/>
					
						<path style="fill:none;stroke:#072420;stroke-width:1.2;stroke-linecap:round;stroke-linejoin:round;stroke-miterlimit:10;" d="
						M507.732,284.747c0,4.457-3.613,8.069-8.069,8.069c-4.456,0-8.069-3.613-8.069-8.069c0-4.457,3.613-8.069,8.069-8.069
						C504.119,276.678,507.732,280.291,507.732,284.747z"/>
				</g>
			</g>
			<g>
				<g>
					<g>
						<g>
							<polygon style="fill:#CE9180;" points="637.507,665.021 634.413,708.169 659.983,707.389 662.924,661.857 							"/>
							<polygon style="fill:#FFFFFF;" points="631.99,697.888 662.924,698.767 664.311,722.012 615.118,721.65 627.596,709.653 
															"/>
						</g>
						<g>
							<polygon style="fill:#CE9180;" points="588.368,662.208 582.959,705.127 608.535,705.723 613.918,660.415 							"/>
							<path style="fill:#FFFFFF;" d="M582.251,694.373c0.879,0,30.466,2.812,30.466,2.812v24.746l-62.982-0.254l21.796-14.287
								L582.251,694.373z"/>
						</g>
					</g>
					<g>
						<polygon style="fill:#072420;" points="578.114,672.755 623.763,675.057 642.513,498.698 584.961,493.957 						"/>
						<g>
							<polygon style="fill:#072420;" points="626.19,487.857 630.712,675.057 670.267,675.057 671.571,495.59 							"/>
							<g>
								
									<polyline style="fill:none;stroke:#072420;stroke-width:1.2;stroke-linecap:round;stroke-linejoin:round;stroke-miterlimit:10;" points="
									578.114,672.755 623.763,675.057 642.513,498.698 								"/>
							</g>
						</g>
					</g>
				</g>
				<g>
					<g>
						<g>
							<g>
								<g>
									<g>
										<path style="fill:#CE9180;" d="M613.951,297.779c-0.882,2.362-2.891,6.077-4.762,7.766
											c-0.056,0.05-0.116,0.106-0.125,0.181c-0.013,0.104,0.078,0.189,0.16,0.254c0.92,0.723,1.911,1.356,2.953,1.887
											l1.607,0.865L613.951,297.779z"/>
									</g>
									<path style="fill:#CE9180;" d="M626.155,281.299l10.044,0.432c6.678,0.287,11.874,6.742,11.547,14.345l-0.669,15.57
										c-0.019,0.439-0.06,0.871-0.114,1.298c0.088,0.464,0.131,0.942,0.11,1.434l-0.407,9.478l-0.023,0.528l-0.407,9.478
										c-0.148,3.439-3.083,6.132-6.522,5.984l-3.984-0.171c-3.439-0.148-6.132-3.083-5.984-6.522l0.36-8.388l-5.808-0.25
										c-6.677-0.287-11.874-6.742-11.547-14.345l0.669-15.57C613.747,286.998,619.478,281.013,626.155,281.299z"/>
									<g>
										<path style="fill:#072420;" d="M619.667,301.293c-0.574,1.024-0.209,2.319,0.815,2.894
											c1.024,0.574,2.32,0.209,2.894-0.815c0.574-1.024,0.209-2.319-0.815-2.894
											C621.537,299.904,620.241,300.269,619.667,301.293z"/>
									</g>
									<path style="fill:#FFFFFF;" d="M618.28,311.41c0,0,1.569,7.737-4.939,3.572L618.28,311.41z"/>
									<g>
										<path style="fill:#072420;" d="M624.294,296.971c0,0,2.097,0.855,1.528,1.913c0,0-0.4,0.708-2.206-0.082
											c-1.805-0.789-2.416-1.27-2.199-2.021C621.634,296.031,623.362,296.478,624.294,296.971z"/>
									</g>
								</g>
								<g>
									<g>
										<path style="fill:#072420;" d="M625.362,288.641c0,0-30.752,2.87-17.768-19.248c6.253-10.652,21.992,0.177,21.992,0.177
											s5.843-5.844,14.108-1.115c8.265,4.729,9.209,16.263,9.209,16.263s8.419-0.192,8.901,10.053
											c0.015,0.32,0.019,0.639,0.012,0.957c-0.231,10.88-12.642,17.095-21.844,11.286L625.362,288.641z"/>
									</g>
									<g>
										<path style="fill:#CE9180;" d="M656.285,311.384c-0.438,4.241-4.258,7.321-8.534,6.88
											c-4.275-0.441-7.387-4.237-6.949-8.478c0.437-4.241,4.258-7.321,8.533-6.88
											C653.612,303.348,656.723,307.143,656.285,311.384z"/>
										
											<path style="fill:none;stroke:#072420;stroke-width:1.2;stroke-linecap:round;stroke-linejoin:round;stroke-miterlimit:10;" d="
											M644.321,311.192c0,0,0.198-5.251,5.493-4.119"/>
									</g>
								</g>
								<path style="opacity:0.3;fill:#DA5882;" d="M623.921,308.59c-0.234,2.886,1.916,5.416,4.803,5.65
									c2.886,0.234,5.416-1.917,5.65-4.803c0.234-2.887-1.916-5.416-4.803-5.65C626.684,303.554,624.155,305.704,623.921,308.59z"
									/>
							</g>
						</g>
						<g>
							<g>
								<path style="fill:#EDB44E;" d="M624.14,343.633l25.897-0.401c1.986-0.031,3.571-1.665,3.541-3.651l-0.139-9.044
									c-0.031-1.986-1.666-3.572-3.652-3.541l-25.897,0.401c-1.986,0.031-3.571,1.666-3.54,3.652l0.14,9.044
									C620.519,342.078,622.154,343.664,624.14,343.633z"/>
							</g>
							<g>
								
									<rect x="635.45" y="327.212" transform="matrix(0.9999 -0.0155 0.0155 0.9999 -5.1339 9.9211)" style="fill:#072420;" width="0.817" height="16.238"/>
								<polygon style="fill:#072420;" points="642.705,327.105 643.524,327.092 642.89,343.342 642.071,343.355 								"/>
								<polygon style="fill:#072420;" points="628.95,327.318 629.769,327.305 629.117,343.556 628.299,343.568 								"/>
								<path style="fill:#072420;" d="M623.1,342.87l-0.227-14.678c0.258-0.162,0.526-0.306,0.811-0.422l0.24,15.496
									C623.635,343.159,623.362,343.023,623.1,342.87z"/>
								<path style="fill:#072420;" d="M649.855,342.985c-0.268,0.085-0.542,0.15-0.827,0.192l0.702-15.896
									c0.28,0.087,0.547,0.194,0.804,0.323L649.855,342.985z"/>
							</g>
						</g>
					</g>
					<g>
						<path style="fill:#CE9180;" d="M504.566,334.191c0,0-13.885-25.223-15.379-28.086c-1.494-2.863-2.177-7.007,0.376-9.018
							l1.126-1.987l2.246-4.517c0,0-2.968-5.532-3.007-8.344c-0.039-2.812,2.319-4.658,5.051-0.615
							c2.732,4.042,6.797,13.98,8.016,13.493c1.219-0.487-2.121-11.999,0.252-12.614c2.373-0.615,4.004,1.555,8.681,11.85
							c4.677,10.295,15.07,31.3,15.322,31.695C527.502,326.442,504.566,334.191,504.566,334.191z"/>
						<g>
							
								<path style="fill:none;stroke:#072420;stroke-width:1.2;stroke-linecap:round;stroke-linejoin:round;stroke-miterlimit:10;" d="
								M497.271,298.852c-3.038-4.902-5.314-10.276-6.721-15.869"/>
							
								<path style="fill:none;stroke:#072420;stroke-width:1.2;stroke-linecap:round;stroke-linejoin:round;stroke-miterlimit:10;" d="
								M494.979,301.249c-0.925-1.402-1.858-2.82-2.427-4.4c-0.569-1.58-0.746-3.362-0.142-4.928c0.098-0.254,0.4-0.541,0.587-0.343
								"/>
							
								<path style="fill:none;stroke:#072420;stroke-width:1.2;stroke-linecap:round;stroke-linejoin:round;stroke-miterlimit:10;" d="
								M492.534,304.249c-0.3-0.553-0.599-1.106-0.899-1.659c-0.701-1.294-1.414-2.62-1.64-4.074
								c-0.227-1.454,0.122-3.086,1.248-4.034"/>
						</g>
					</g>
					<g>
						<path style="fill:#FFFFFF;" d="M650.161,560.557l-7.648,3.095l-2.598,28.458l-78.668-2.062l19.771-173.793
							c0,0-48.862-8.591-60.284-24.332c-11.422-15.741-21.495-61.567-21.495-61.567l31.073-10.907c0,0,25.751,32.83,39.46,34.236
							c13.709,1.406,53.725-14.844,68.869-15.858c15.144-1.014,19.282,11.823,26.528,37.92
							c7.246,26.097,21.307,216.364,21.307,216.364h-40.991l-2.972-28.458"/>
						<g>
							<g>
								
									<polyline style="fill:none;stroke:#072420;stroke-width:1.2;stroke-linecap:round;stroke-linejoin:round;stroke-miterlimit:10;" points="
									686.475,592.11 645.485,592.11 642.513,563.653 								"/>
								
									<path style="fill:none;stroke:#072420;stroke-width:1.2;stroke-linecap:round;stroke-linejoin:round;stroke-miterlimit:10;" d="
									M581.017,416.255c0,0-48.862-8.591-60.284-24.332c-11.422-15.741-21.495-61.567-21.495-61.567l31.073-10.907"/>
								
									<path style="fill:none;stroke:#072420;stroke-width:1.2;stroke-linecap:round;stroke-linejoin:round;stroke-miterlimit:10;" d="
									M600.237,419.199c-3.633-0.571-19.22-2.944-19.22-2.944l-3.404,29.918l-6.149,54.049"/>
								
									<polyline style="fill:none;stroke:#072420;stroke-width:1.2;stroke-linecap:round;stroke-linejoin:round;stroke-miterlimit:10;" points="
									649.34,561.826 642.513,563.653 639.915,592.11 561.246,590.048 								"/>
							</g>
							<g>
								
									<path style="fill:none;stroke:#072420;stroke-width:1.2;stroke-linecap:round;stroke-linejoin:round;stroke-miterlimit:10;" d="
									M634.413,442.446c0,0,9.394,2.232,27.916,0"/>
								
									<path style="fill:none;stroke:#072420;stroke-width:1.2;stroke-linecap:round;stroke-linejoin:round;stroke-miterlimit:10;" d="
									M634.413,461.366c0,0,16.834,0.469,35.854,0"/>
								
									<path style="fill:none;stroke:#072420;stroke-width:1.2;stroke-linecap:round;stroke-linejoin:round;stroke-miterlimit:10;" d="
									M640.038,451.406c0,1.553-1.259,2.812-2.812,2.812c-1.553,0-2.812-1.259-2.812-2.812c0-1.553,1.259-2.812,2.812-2.812
									C638.779,448.594,640.038,449.853,640.038,451.406z"/>
							</g>
						</g>
					</g>
				</g>
				<g>
					
						<path style="fill:none;stroke:#072420;stroke-width:1.2;stroke-linecap:round;stroke-linejoin:round;stroke-miterlimit:10;" d="
						M613.217,333.386c7.945,1.6,16.897,0.921,23.098-4.298c4.393-3.698,6.849-9.165,8.867-14.541
						c0.387-1.031,1.562-2.27,2.312-1.464c0.541,1.278-2.014,2.165-2.424,0.839c-0.41-1.326,2.078-2.135,2.571-0.837
						c0.061,1.054-1.574,1.695-2.22,0.86c-0.647-0.834,0.454-2.268,1.415-1.83c0.96,0.437,0.537,2.247-0.517,2.184
						c-1.022-0.29-0.692-2.2,0.368-2.131c0.906,0.295,0.837,1.902-0.091,2.119c-0.928,0.216-1.701-1.194-1.019-1.86
						c0.468-0.405,1.262-0.348,1.667,0.121c0.756,0.826-0.569,2.35-1.516,1.751c-0.946-0.599-0.251-2.41,0.86-2.267
						c1.111,0.144,1.393,1.983,0.398,2.498c-0.952-0.251-2.094-1.411-1.256-1.93"/>
					<circle style="fill:#072420;" cx="646.3" cy="313.382" r="2.812"/>
				</g>
			</g>
		</g>
		<g style="clip-path:url(#SVGID_00000018222547301664590570000013921982256041304479_);">
			<path style="fill:#072420;" d="M379.314,337.848c0,0,19.797,19.884,47.788,0c0,0,13.137-7.372,1.901-33.714
				C417.766,277.793,360.769,295.52,379.314,337.848z"/>
			<g>
				<g>
					<g>
						<g>
							<path style="fill:#072420;" d="M394.034,310.683l-19.923,42.058c-0.142,0.299-0.297,0.588-0.468,0.871
								c-1.581,2.616-10.26,16.947-19.295,31.262c-2.122,3.363-6.193,5.458-10.62,5.458h-10.705c-0.277,0-0.538-0.014-0.799-0.028
								c-1.152-0.074-2.319-0.59-3.608-0.932c-7.115-1.888-8.415-11.127-8.641-15.141c-0.078-1.385-0.256-2.762-0.396-4.142
								c-0.628-6.169,1.422-12.393,5.85-16.822c0.616-0.616,1.199-1.111,1.709-1.433c0.23-0.145,0.437-0.264,0.616-0.353
								c12.804-6.438,18.774-0.776,24.157-6.056c7.177-7.002-1.076-11.732,2.757-21.148c3.931-9.6,12.364-9.402,20.111-13.299
								c7.16-3.572,8.09-11.661,8.889-14.894c0.17-0.703,2.492,0.21,5.21,1.555C394.137,300.242,396.331,305.832,394.034,310.683z"
								/>
						</g>
					</g>
				</g>
				<g>
					<path style="fill:#072420;" d="M383.707,305.05c-0.832-1.314-1.228-2.813-1.068-4.318c0.17-1.608,0.609-3.35,0.953-4.315
						c1.694-4.764,6.858-13.733,21.696-13.596c20.188,0.186,20.245,30.961,20.245,30.961l-36.044,0.403L383.707,305.05z"/>
				</g>
			</g>
			<g>
				<g>
					<g>
						<g>
							<g>
								<polygon style="fill:#ECB08C;" points="457.312,634.663 467.312,675.424 440.791,677.856 431.487,637.74 								"/>
								<g>
									
										<polygon style="fill:none;stroke:#072420;stroke-width:1.2;stroke-linecap:round;stroke-linejoin:round;stroke-miterlimit:10;" points="
										472.734,667.388 430.857,669.899 435.945,699.739 507.336,699.388 480.138,684.048 									"/>
								</g>
							</g>
							<g>
								<polygon style="fill:#ECB08C;" points="383.187,635.463 383.589,677.431 357.215,673.726 357.343,632.546 								"/>
								<g>
									
										<polygon style="fill:none;stroke:#072420;stroke-width:1.2;stroke-linecap:round;stroke-linejoin:round;stroke-miterlimit:10;" points="
										391.752,668.81 350.967,669.718 347.893,699.739 419.285,699.388 392.086,684.048 									"/>
								</g>
							</g>
						</g>
						<g>
							<g>
								<g>
									<polygon style="fill:#3D998B;" points="396.34,487.259 423.079,649.296 479.065,644.787 440.519,451.425 389.073,451.425 
																			"/>
									
										<polyline style="fill:none;stroke:#072420;stroke-width:1.2;stroke-linecap:round;stroke-linejoin:round;stroke-miterlimit:10;" points="
										396.556,488.443 423.079,649.296 479.065,644.787 									"/>
								</g>
								<g>
									<polyline style="fill:none;stroke:#3D998B;stroke-width:0.4878;stroke-miterlimit:10;" points="413.31,481.865 
										404.591,482.621 399.414,552.243 									"/>
									<polygon style="fill:#3D998B;" points="413.31,481.865 404.591,482.621 396.556,646.6 338.491,645.803 362.76,465.234 
										365.365,448.16 425.076,431.846 									"/>
									
										<polyline style="fill:none;stroke:#072420;stroke-width:1.2;stroke-linecap:round;stroke-linejoin:round;stroke-miterlimit:10;" points="
										413.31,481.865 404.591,482.621 396.556,646.6 338.491,645.803 									"/>
								</g>
							</g>
						</g>
					</g>
				</g>
			</g>
			<g>
				<g>
					<g>
						<path style="fill:#FFFFFF;" d="M369.7,346.518c21.931-16.003,32.612-13.296,32.612-13.296
							c13.805-1.925,36.694,17.978,40.084,20.521c3.391,2.543,17.292,32.849,20.789,46.297c3.497,13.448-7.629,31.806-7.629,31.806
							s-108.395,3.063-112.209-4.38C339.533,420.022,348.034,362.328,369.7,346.518z"/>
						<g>
							<g>
								<path style="fill:#B9F0C3;" d="M363.634,466.981c-1.653-9.515-0.936-24.553-0.936-35.134
									c0-52.823,12.457-96.598,39.947-97.855c16.823-0.769,38.989,42.325,42.106,94.973c0.625,10.563,2.287,27.899,0.634,37.414
									L363.634,466.981z"/>
							</g>
						</g>
					</g>
					<g>
						<path style="fill:#FFFFFF;" d="M441.944,383.856c16.243,51.186,36.181,208.572,36.181,208.572l-56.473,6.009l-6.592-233.153
							l-1.782-29.76C413.278,335.524,430.338,347.283,441.944,383.856z"/>
						<g>
							
								<path style="fill:none;stroke:#072420;stroke-width:1.2;stroke-linecap:round;stroke-linejoin:round;stroke-miterlimit:10;" d="
								M416.459,339.833c1.882,5.268,8.861,25.499,8.861,25.499l-4.33,1.007l-0.001,0.193l6.685,4.597l-8.356,77.788"/>
							
								<line style="fill:none;stroke:#072420;stroke-width:1.2;stroke-linecap:round;stroke-linejoin:round;stroke-miterlimit:10;" x1="455.556" y1="475.067" x2="430.338" y2="472.948"/>
							
								<path style="fill:none;stroke:#072420;stroke-width:1.2;stroke-linecap:round;stroke-linejoin:round;stroke-miterlimit:10;" d="
								M441.944,383.856c16.243,51.186,36.181,208.572,36.181,208.572l-56.473,6.009"/>
						</g>
					</g>
					<g>
						<path style="fill:#FFFFFF;" d="M361.646,383.856c-16.243,51.186-36.18,208.572-36.18,208.572l56.473,6.009l6.592-233.153
							l1.782-29.76C390.313,335.524,373.252,347.283,361.646,383.856z"/>
						<g>
							
								<path style="fill:none;stroke:#072420;stroke-width:1.2;stroke-linecap:round;stroke-linejoin:round;stroke-miterlimit:10;" d="
								M387.131,339.833c-1.882,5.268-8.861,25.499-8.861,25.499l4.33,1.007l0.001,0.193l-6.685,4.597l6.98,82.93"/>
							
								<line style="fill:none;stroke:#072420;stroke-width:1.2;stroke-linecap:round;stroke-linejoin:round;stroke-miterlimit:10;" x1="348.034" y1="475.067" x2="373.252" y2="472.948"/>
							
								<path style="fill:none;stroke:#072420;stroke-width:1.2;stroke-linecap:round;stroke-linejoin:round;stroke-miterlimit:10;" d="
								M361.646,383.856c-16.243,51.186-36.18,208.572-36.18,208.572l56.473,6.009"/>
						</g>
					</g>
				</g>
				<g>
					<g>
						<path style="fill:#ECB08C;" d="M442.947,411.174c0,0-11.073-16.645-14.41-16.799c-3.338-0.154,0.268,5.984,0.268,5.984
							s-9.907-4.307-13.67-3.792c-3.763,0.515-4.993,19.428-4.993,19.428s18.454,7.052,26.978,6.517
							C444.045,422.078,442.947,411.174,442.947,411.174z"/>
						<polygon style="fill:#3D998B;" points="428.805,400.36 436.96,387.626 431.229,383.856 424.035,398.5 						"/>
					</g>
					<g>
						<path style="fill:#FFFFFF;" d="M452.604,406.218l-1.733-17.25l-25.554-31.514l-2.521-16.381
							c16.598,8.718,41.623,26.514,55.294,58.969c21.651,51.398-6.64,52.006-12.997,51.384
							c-6.357-0.622-37.772-17.194-37.772-17.194l10.49-34.19L452.604,406.218z"/>
						
							<path style="fill:none;stroke:#072420;stroke-width:1.2;stroke-linecap:round;stroke-linejoin:round;stroke-miterlimit:10;" d="
							M478.089,400.041c21.651,51.398-6.64,52.006-12.997,51.384c-6.357-0.622-37.772-17.194-37.772-17.194l10.49-34.19
							l33.321,13.913"/>
					</g>
				</g>
				<g>
					<g>
						<path style="fill:#EDB44E;" d="M377.116,455.619h35.902c5.692,0,10.307-4.615,10.307-10.307v-54.191
							c0-5.692-4.615-10.307-10.307-10.307h-35.902c-5.692,0-10.307,4.615-10.307,10.307v54.191
							C366.809,451.005,371.424,455.619,377.116,455.619z"/>
						<g>
							<path style="fill:#3D998B;" d="M384.945,386.762h20.244c2.128,0,3.852-1.725,3.852-3.853v-0.34
								c0-2.128-1.725-3.852-3.852-3.852h-20.244c-2.128,0-3.853,1.725-3.853,3.852v0.34
								C381.093,385.037,382.818,386.762,384.945,386.762z"/>
							<path style="fill:#3D998B;" d="M388.853,379.184c0,3.432,2.782,6.214,6.214,6.214s6.214-2.782,6.214-6.214
								s-2.782-6.214-6.214-6.214S388.853,375.753,388.853,379.184z M391.674,379.184c0-1.874,1.519-3.393,3.393-3.393
								c1.874,0,3.393,1.519,3.393,3.393c0,1.874-1.519,3.393-3.393,3.393C393.193,382.577,391.674,381.058,391.674,379.184z"/>
						</g>
					</g>
					<g>
						<g>
							<path style="fill:#ECB08C;" d="M366.809,408.667v5.509c0,0,11.408-5.901,13.969-5.488c2.562,0.413,3.572,2.501,1.433,4.503
								c0,0,3.163-0.827,4.065,1.218c0.902,2.046-0.697,3.777-2.745,4.905c0,0,2.885-1.015,3.317,0.89
								c0.432,1.905-4.648,4.913-4.648,4.913s2.31-1.763,3.085-0.679c0.775,1.084-0.279,3.988-8.47,7.827
								c-8.191,3.839-14.82,6.459-14.82,6.459l-10.973-17.749L366.809,408.667z"/>
							<g>
								
									<line style="fill:none;stroke:#072420;stroke-width:1.2;stroke-linecap:round;stroke-linejoin:round;stroke-miterlimit:10;" x1="383.572" y1="424.667" x2="374.369" y2="429.318"/>
								
									<line style="fill:none;stroke:#072420;stroke-width:1.2;stroke-linecap:round;stroke-linejoin:round;stroke-miterlimit:10;" x1="385.441" y1="418.262" x2="372.164" y2="425.577"/>
								
									<line style="fill:none;stroke:#072420;stroke-width:1.2;stroke-linecap:round;stroke-linejoin:round;stroke-miterlimit:10;" x1="382.675" y1="412.854" x2="368.699" y2="420.801"/>
							</g>
						</g>
						<g>
							<path style="fill:#FFFFFF;" d="M324.953,396.512c14.592-29.273,39.771-49.971,56.985-55.975l-3.727,5.63
								c-6.6,5.457-13.193,12.189-16.958,19.552c-8.008,15.659-14.244,37.773-16.039,44.463c3.471-0.916,5.989-1.514,5.989-1.514
								l12.429,35.46c0,0-16.173,7.617-22.83,9.931c-5.881,2.044-20.054,3.708-25.811-6.243
								C310.201,439.533,312.659,421.175,324.953,396.512z"/>
							
								<path style="fill:none;stroke:#072420;stroke-width:1.2;stroke-linecap:round;stroke-linejoin:round;stroke-miterlimit:10;" d="
								M324.953,396.512c-27.062,54.291-4.016,64.816,15.851,57.547c6.619-2.422,22.83-9.931,22.83-9.931l-12.429-35.46
								c0,0-14.051,3.333-21.685,6.374"/>
						</g>
					</g>
				</g>
				<g>
					<path style="fill:#3D998B;" d="M390.313,338.143c0,4.228,5.141,7.655,11.483,7.655c6.342,0,11.482-3.427,11.482-7.655
						c0-4.227-5.141-7.654-11.482-7.654C395.454,330.488,390.313,333.915,390.313,338.143z"/>
					<g>
						<g>
							<path style="fill:#ECB08C;" d="M402.748,288.633l9.176-0.466c6.101-0.31,11.381,5.12,11.733,12.066l0.722,14.225
								c0.353,6.946-4.351,12.882-10.451,13.192l-3.14,0.159v4.845c0,4.017-3.257,7.274-7.274,7.274H400.7
								c-4.017,0-7.274-3.257-7.274-7.274v-6.535l-0.384-7.573c-0.023-0.449,0.013-0.886,0.091-1.311
								c-0.052-0.39-0.093-0.784-0.113-1.185l-0.722-14.225C391.945,294.879,396.647,288.942,402.748,288.633z"/>
							<g>
								<g>
									<path style="fill:#072420;" d="M404.531,305.812c0.058,1.142,1.031,2.021,2.173,1.964c1.142-0.058,2.021-1.031,1.963-2.174
										c-0.058-1.142-1.031-2.021-2.173-1.963C405.352,303.697,404.473,304.67,404.531,305.812z"/>
									<path style="fill:#072420;" d="M418.057,304.822c0.049,0.975,0.88,1.726,1.855,1.676c0.975-0.049,1.726-0.88,1.676-1.855
										c-0.05-0.975-0.88-1.725-1.855-1.676C418.758,303.016,418.008,303.847,418.057,304.822z"/>
								</g>
								<g>
									<path style="opacity:0.3;fill:#DA5882;" d="M398.37,313.784c0.144,2.84,2.563,5.025,5.402,4.881
										c2.84-0.144,5.025-2.563,4.88-5.403c-0.144-2.839-2.563-5.024-5.402-4.88C400.41,308.525,398.226,310.944,398.37,313.784z"
										/>
									<path style="opacity:0.3;fill:#DA5882;" d="M423.187,309.072c0.313-0.016,0.618,0.01,0.913,0.064l0.271,5.333
										c0.04,0.797,0.05,1.569-0.074,2.328c-0.213,0.047-0.488,0.091-0.713,0.102c-2.161,0.11-4.002-1.553-4.112-3.715
										C419.363,311.023,421.026,309.182,423.187,309.072z"/>
								</g>
							</g>
							<g>
								<path style="fill:#ECB08C;" d="M381.238,312.267c0.203,4.002,3.639,7.08,7.673,6.875c4.035-0.205,7.141-3.615,6.938-7.617
									c-0.203-4.002-3.639-7.08-7.673-6.875C384.141,304.855,381.035,308.265,381.238,312.267z"/>
								
									<path style="fill:none;stroke:#072420;stroke-width:1.2;stroke-linecap:round;stroke-linejoin:round;stroke-miterlimit:10;" d="
									M392.543,312.653c0,0,0.072-4.938-4.955-4.135"/>
							</g>
							<path style="fill:#072420;" d="M392.012,288.147c4.84-5.536,29.549-12.422,33.329,11.882c0,0-7.559-2.318-12.017-9.51
								c0,0-0.783,5.459-14.138,11.475c-1.178,0.531-2.244,0.944-3.221,1.267l-0.668,5.846l-4.1-5.014
								C383.913,303.726,388.154,292.56,392.012,288.147z"/>
							
								<path style="fill:none;stroke:#072420;stroke-width:1.2;stroke-linecap:round;stroke-linejoin:round;stroke-miterlimit:10;" d="
								M413.792,304.012c0.279,1.271,0.692,2.526,1.234,3.751c0.021,0.047,0.037,0.108-0.016,0.14
								c-0.024,0.014-0.057,0.018-0.087,0.021c-0.608,0.062-1.22,0.1-1.834,0.116"/>
							
								<path style="fill:none;stroke:#072420;stroke-width:1.2;stroke-linecap:round;stroke-linejoin:round;stroke-miterlimit:10;" d="
								M410.791,312.79c0,0,3.888,2.172,7.776,0"/>
						</g>
					</g>
				</g>
			</g>
		</g>
	</g>
	<g>
		<g>
			<path style="fill:#FFFFFF;" d="M485.208,237.479c2.56,5.961-0.198,12.869-6.159,15.429c-5.961,2.56-12.869-0.198-15.429-6.159
				c-2.56-5.961,0.198-12.869,6.159-15.428C475.741,228.76,482.648,231.518,485.208,237.479z"/>
			
				<line style="fill:none;stroke:#072420;stroke-width:1.2;stroke-linecap:round;stroke-linejoin:round;stroke-miterlimit:10;" x1="463.621" y1="246.748" x2="485.208" y2="237.479"/>
		</g>
		<g>
			<path style="fill:#FFFFFF;" d="M719.962,335.04c-3.56,5.423-10.843,6.934-16.266,3.374c-5.424-3.56-6.934-10.843-3.374-16.266
				c3.56-5.423,10.843-6.934,16.266-3.374C722.012,322.334,723.522,329.617,719.962,335.04z"/>
			
				<line style="fill:none;stroke:#072420;stroke-width:1.2;stroke-linecap:round;stroke-linejoin:round;stroke-miterlimit:10;" x1="700.322" y1="322.148" x2="719.962" y2="335.04"/>
		</g>
		<g>
			
				<ellipse transform="matrix(0.7874 -0.6165 0.6165 0.7874 -162.8809 422.4069)" style="fill:#FFFFFF;" cx="530.935" cy="447.336" rx="11.747" ry="11.747"/>
			
				<line style="fill:none;stroke:#072420;stroke-width:1.2;stroke-linecap:round;stroke-linejoin:round;stroke-miterlimit:10;" x1="519.366" y1="449.376" x2="542.503" y2="445.296"/>
		</g>
	</g>
	<g>
		<g>
			<g>
				<g>
					<path style="fill:#3D998B;" d="M296.426,289.035c2.155,14.516,15.67,24.537,30.186,22.381
						c14.516-2.155,24.537-15.67,22.382-30.186c-2.155-14.516-15.67-24.537-30.186-22.382
						C304.292,261.004,294.271,274.519,296.426,289.035z"/>
					<g>
						<path style="fill:#FFFFFF;" d="M336.714,278.234h-28.008c-0.477,0-0.866-0.39-0.866-0.866l0,0c0-0.477,0.39-0.866,0.866-0.866
							h28.008c0.477,0,0.866,0.39,0.866,0.866l0,0C337.581,277.844,337.191,278.234,336.714,278.234z"/>
						<path style="fill:#FFFFFF;" d="M336.714,283.411h-28.008c-0.477,0-0.866-0.39-0.866-0.866l0,0c0-0.477,0.39-0.866,0.866-0.866
							h28.008c0.477,0,0.866,0.39,0.866,0.866l0,0C337.581,283.021,337.191,283.411,336.714,283.411z"/>
						<path style="fill:#FFFFFF;" d="M336.714,288.587h-28.008c-0.477,0-0.866-0.39-0.866-0.866l0,0c0-0.477,0.39-0.866,0.866-0.866
							h28.008c0.477,0,0.866,0.39,0.866,0.866l0,0C337.581,288.197,337.191,288.587,336.714,288.587z"/>
						<path style="fill:#FFFFFF;" d="M336.714,293.763h-28.008c-0.477,0-0.866-0.39-0.866-0.866l0,0c0-0.477,0.39-0.866,0.866-0.866
							h28.008c0.477,0,0.866,0.39,0.866,0.866l0,0C337.581,293.374,337.191,293.763,336.714,293.763z"/>
					</g>
					<polygon style="fill:#3D998B;" points="347.049,288.81 363.075,303.7 339.862,299.855 					"/>
				</g>
			</g>
		</g>
	</g>
	<g>
		<g>
			<g>
				<g>
					
						<rect x="123.582" y="370.09" transform="matrix(-0.1799 -0.9837 0.9837 -0.1799 -215.2552 667.5637)" style="fill:#FFFFFF;" width="94.145" height="106.848"/>
				</g>
			</g>
		</g>
		<g>
			<g>
				<g>
					
						<polyline style="fill:none;stroke:#072420;stroke-width:1.2;stroke-linecap:round;stroke-linejoin:round;stroke-miterlimit:10;" points="
						126.569,479.428 109.634,386.819 214.74,367.599 					"/>
				</g>
			</g>
		</g>
		<g>
			<g>
				<path style="fill:#3D998B;" d="M162.745,419.507c0,0-1.354-5.514-3.994-10.519c-2.641-5.005-4.784-8.546-10.413-7.242
					c-5.629,1.304-11.015,3.935-15.082,16.294c-4.067,12.359-4.927,27.79-4.033,33.938c0.894,6.147,1.767,15.957,11.655,12.777
					c9.887-3.18,7.488-7.497,19.192-9.546c11.705-2.049,13.353-9.393,11.159-13.839C169.036,436.923,162.717,425.64,162.745,419.507
					z"/>
				<path style="fill:#3D998B;" d="M176.904,428.991c0,0-0.873-9.809-1.381-14.473c-0.508-4.663,0.772-7.732,0.776-11.483
					c0.005-3.751,2.71-7.199,8.438-7.959c5.728-0.759,16.087,4.297,22.244,14.695c6.158,10.398,11.183,19.631,12.538,25.786
					c1.355,6.154,2.739,11.206-4.632,14.932c-7.372,3.726-11.117-3.546-17.159-1.984c-6.042,1.562-17.299,4.169-21.152-1.803
					C172.724,440.73,177.363,434.035,176.904,428.991z"/>
			</g>
			<g>
				<path style="fill:#DBFDD9;" d="M208.503,436.962c1.398,1.147,4.091,0.563,6.656-0.089c0,0-4.161,0.711-5.861,0.035
					c-1.7-0.676-1.083-1.936-3.458-1.715c-1.875,0.174-4.269-0.032-5.461-0.647c-0.581-1.379-0.879-3.001-0.844-4.16
					c0.006-0.211,0.004-0.396-0.004-0.568c0.289-0.071,0.671-0.215,1.21-0.277c1.352-0.156,2.915-0.838,4.028,0.849
					c1.005,1.522,2.268,1.034,4.06-0.121c-0.775,0.452-2.126,1.037-2.999,0.263c-1.282-1.137-1.216-2.247-3.306-2.139
					c-1.692,0.087-2.812,0.135-3.389-0.113c-0.27-0.489-0.654-0.956-1.086-1.919c-0.873-1.944-3.547-2.095-4.451-3.896
					c-0.307-0.612-0.592-1.087-0.935-1.443c0.761-0.892,2.165-2.639,2.661-3.943c1.781-2.166,3.637-2.681,5.926-1.531
					c2.491,1.252,4.9-0.256,4.9-0.256c-3.593,1.114-4.666-1.189-7.525-1.307c-1.526-0.063-2.49,0.736-3.057,1.494
					c-0.08-1.273-0.763-2.456-1.547-3.396c-1.081-1.296-0.471-1.53,0.753-3.43c1.225-1.901,0.112-3.374,0.112-3.374
					c0.337,2.469-1.352,3.723-2.233,5.195c-0.881,1.472,0.886,1.698,1.544,3.62c0.658,1.922,0.089,3.002-1.525,4.455
					c-0.831,0.749-1.221,1.343-1.404,1.744c-0.504-0.094-1.124-0.1-1.924-0.023c-1.556,0.151-2.848-0.955-3.818-1.986
					c0.29-0.89,0.835-2.748,0.722-3.834c-0.046-0.445-0.169-0.952-0.347-1.46c0.166-0.576,0.404-1.367,0.613-1.912
					c0.363-0.95,1.563-0.682,2.678-1.922c1.115-1.241,0.587-2.241,0.587-2.241c-0.375,2.142-1.514,2.624-3.273,3.281
					c-0.955,0.357-1.304,0.8-1.426,1.131c-0.328-0.487-0.702-0.884-1.099-1.096c-1.148-0.613-2.096-0.348-1.84-1.462
					c0.257-1.114-0.204-2.371-0.458-4.184c-0.255-1.813,1.15-3.198,1.15-3.198c-2.542,1.776-1.765,3.402-1.488,5.333
					c0.276,1.931-0.354,2.046-0.002,2.927c0.353,0.881,1.161-0.151,2.945,2.053c1.343,1.66,0.75,4.382,0.374,5.626
					c-0.279-0.31-0.51-0.548-0.691-0.644c-0.829-0.443-2.865-0.253-6.7-0.467c-3.835-0.213-5.468-3.482-6.337-6.661
					c-0.869-3.179-3.444-17.891-3.856-19.828c-0.412-1.937-5.07-0.673-5.864,0.158c-0.794,0.831,1.088,7.072,2.356,13.06
					c1.267,5.988,1.415,9.939,1.415,9.939c-0.182,2.606-1.289,5.045-4.988,6.598c-0.495-0.414-1.068-0.784-1.719-1.103
					c0.097-0.736,0.018-1.938-1.13-3.056c-1.819-1.771-2.692-1.093-2.974-3.054c-0.282-1.961-0.674-3.688-3.288-4.978
					c-0.018-0.009,2.25,1.741,2.516,3.9c0.315,2.564,0.369,2.646,1.708,3.468c1.196,0.734,2.124,2.027,2.018,3.239
					c-1.605-0.568-3.585-0.883-5.956-0.872c-4.445,0.02-6.409-4.011-5.618-2.204c0.022,0.049,0.044,0.098,0.067,0.146
					c0.814,1.718,2.44,2.734,6.004,2.646c2.768-0.069,5.679,1.61,6.939,2.435c-3.525,1.435-5.218,2.953-8.188,4.47
					c-0.352,0.18-0.65,0.364-0.908,0.551c-0.454-0.303-1.254-0.805-2.327-1.362c-0.229-0.119-0.464-0.228-0.706-0.327
					c0.059-0.379,0.117-0.966,0.095-1.756c-0.042-1.486-1.672-2.225-3.355-3.35c-1.682-1.125-1.715-3.193-1.715-3.193
					c-0.474,1.184-0.336,2.988,2.401,4.744c1.986,1.274,1.632,2.558,1.288,3.167c-1.334-0.265-2.929-0.162-5.047,0.6
					c-3.274,1.178-3.751,2.972-3.751,2.972c2.602-2.336,1.565-1.506,5.614-2.642c3.272-0.919,5.687,1.285,6.493,2.165
					c-0.537,0.784-0.695,1.643-1.014,2.603c-0.792-0.283-2.65-0.804-4.798-0.411c-2.857,0.522-3.397,0.926-4.235,1.902
					c-0.838,0.976-2.531,0.737-3.665,1.036c-1.134,0.299-2.59,1.144-3.011,2.197c0,0,2.566-2.116,4.253-1.906
					c1.687,0.21,2.779-0.112,3.572-1.019c0.767-0.878,4.344-1.898,6.969,0.112c-0.027,0.041-0.053,0.081-0.082,0.122
					c-0.286,0.411-0.5,0.806-0.668,1.195c-0.757,0.431-1.907,1.171-2.841,2.16c-1.253,1.327-1.5,2.286-2.856,2.839
					c-1.356,0.553-2.606,1.056-3.843,2.471c-1.237,1.415-3.131,3.012-3.131,3.012s1.218-0.467,3.387-2.449
					c2.169-1.982,4.209-2.355,4.209-2.355c-0.228,1.901-1.156,4.61-3.662,5.974c-2.507,1.364-3.202,3.878-3.202,3.878
					s1.441-2.184,4.278-4.075c2.837-1.891,3.598-4.438,4.291-6.73c0.432-1.429,1.932-2.733,2.999-3.512
					c-0.295,1.646,0.168,3.307,0.433,5.613c0.299,2.594,0.486,3.854,0.202,4.999c-0.805,1.049-1.788,2.379-3.838,2.693
					c-2.052,0.314-2.617,1.21-3.816,2.832c-1.199,1.622-4.937,2.152-4.937,2.152c3.208-0.282,5.263-1.206,6.393-2.785
					c1.13-1.578,2-1.646,3.845-1.831c0.597-0.06,1.065-0.289,1.428-0.57c-0.178,0.843-0.164,1.649-0.527,2.982
					c-0.551,2.021-1.884,2.905-4.172,4.238c-2.287,1.333-1.862,2.398-1.862,2.398c0.273-1.651,1.864-1.758,3.444-2.871
					c1.368-0.963,2.853-1.982,3.312-3.204c0.293,0.309,0.782,0.951,0.424,1.515c-0.491,0.776-1.182,1.192-0.828,2.285
					c0.353,1.094,0.859,3.227-0.458,4.52c-1.317,1.293-1.935,2-1.935,2s2.224-1.047,2.901-2.695c0.676-1.648,0.294-2.691,0.2-3.939
					c-0.094-1.248,0.069-0.988,0.739-1.934c0.67-0.945-0.473-2.703-0.841-2.774c0.261-1.346,1.121-2.755,1.645-4.994
					c0.1-0.426,0.167-0.736,0.21-0.989c0.716,0.495,2.284,1.725,2.48,3.118c0.255,1.813-2.002,4.36,4.532,6.122
					c0,0-3.319-1.375-3.61-2.754s0.446-3.222-0.392-5.081c-0.654-1.449-2.307-2.397-3.006-2.745
					c-0.089-0.699-0.263-1.844-0.387-4.591c-0.205-4.534,0.438-5.379,1.754-7.29c0.273,1.012,0.857,2.641,1.912,3.327
					c1.828,1.19,3.513,2.223,3.452,3.362s-2.828,2.987-2.387,4.979c0.441,1.992,1.444,2.236,2.906,3.31
					c1.462,1.074,1.916,1.46,2.144,2.708c0,0-0.126-1.949-2.301-3.563c-2.174-1.615-2.462-2.141-1.296-3.94
					c1.167-1.799,2.698-2.231,1.768-4.592c0,0,3.062,0.385,4.144,5.675c1.082,5.29,2.708,4.535,2.708,4.535
					s-1.341,0.428-1.769-2.542c-0.428-2.97-0.117-5.253-3.306-7.596c-3.19-2.344-5.015-2.68-6.036-5.116
					c-0.43-1.027-0.661-1.789-0.786-2.33c0.052-0.088,0.104-0.176,0.158-0.268c1.325-2.295,3.07-3.219,4.888-3.823
					c0.505,0.292,1.148,0.843,1.361,1.826c0.369,1.701,1.124,1.746,1.207,2.828c0.08,1.047-1.928,2.691-0.968,4.212
					c-0.141-0.283-0.288-0.94,0.657-1.823c1.277-1.194,1.929-2.243,1.372-2.979c0,0,1.132,0.006,1.303,1.255
					c0.171,1.249-0.083,1.433,1.271,1.917c1.354,0.484,1.879,0.48,2.025,1.459c0,0,0.598-0.902-1.167-1.692
					c-1.413-0.632-1.348,0.075-1.37-1.306c-0.022-1.381,0.133-1.79-1.654-2.439c-1.787-0.649-1.95-1.598-2.048-2.705
					c-0.041-0.466-0.189-0.8-0.346-1.037c0.639-0.176,1.275-0.352,1.892-0.571c2.917-1.036,6.002-1.463,7.238-3.198
					c1.236-1.735,4.281-2.383,6.208-1.913c1.927,0.471,3.95,1.153,6.425,0.849c2.475-0.304,4.118-0.444,5.062,1.258
					c0.318,0.574,1.059,1.051,1.935,1.45c-1.082,0.027-2.289,0.265-2.473,1.164c-0.345,1.679-1.561,1.108-1.717,2.143
					c-0.156,1.035,0.771,0.652-0.014,2.228c-0.786,1.577-1.66,1.828-0.452,2.979c0,0-0.713-0.754,0.175-1.556
					c0.889-0.803,1.597-1.333,1.291-2.586c-0.306-1.253,0.283-1.391,1.373-2.139c1.09-0.748,0.531-1.5,1.412-1.508
					c0.517-0.005,2.182,0.19,3.469,0.352c0.7,0.212,1.271,0.384,1.544,0.53c0.647,0.346,1.443,1.063,2.732,1.805
					c-0.045,0.501-0.282,1.294-1.173,2.209c-1.089,1.118-2.186,2.16-2.191,3.16c-0.906,0.056-3.474,0.376-3.42,2.225
					c0.065,2.244,0.973,2.596-0.482,3.655c0,0,1.463-0.389,1.378-2.112c-0.085-1.722-0.304-2.292,0.894-2.663
					c0.638-0.198,1.364-0.264,1.904-0.284c0.08,0.114,0.172,0.227,0.292,0.34c1.436,1.353,3.232,2.549,2.722,4.807
					c-0.51,2.258-2.226,4.614,1.31,5.919c0,0-1.935-1.353-1.414-2.912c0.52-1.559,1.584-2.454,1.153-4.388
					c-0.43-1.934-1.427-3.611-2.501-4.451c-0.302-0.236-0.334-0.481-0.199-0.741c0.998-0.948,2.08-0.09,2.327,1.053
					c0.247,1.144,1.933,0.714,1.933,0.714c-1.671,0.092-1.312-0.675-1.78-1.973c-0.296-0.82-1.119-0.763-1.689-0.624
					c0.568-0.468,1.293-0.994,1.779-1.606c0.444-0.559,0.649-1.098,0.737-1.544c0.205,0.087,0.415,0.173,0.638,0.256
					c2.102,0.784,3.04,3.313,3.554,5.781c-0.845,0.687-3.199,2.752-3.146,4.419c0.065,2.031,0.984,2.655,1.611,4.614
					c0.626,1.958,0.079,1.479,0.534,2.92c0.455,1.441,1.436,1.14,2.906,1.633c1.471,0.493,2.557,1.819,2.557,1.819
					s-0.685-1.856-2.835-2.5c-2.15-0.643-1.741-0.291-1.803-1.682c-0.063-1.391-0.974-3.267-1.458-4.428
					c-0.484-1.161-0.952-1.625,0.072-2.94c0.676-0.867,1.447-1.564,1.895-1.94c0.009,0.062,0.019,0.125,0.028,0.186
					c0.423,2.941,1.613,4.415,4.16,4.818c2.547,0.403,3.656,1.435,5.097,4.281c1.441,2.846,5.463,1.562,5.463,1.562
					c-3.903,0.988-4.474-0.874-4.981-2.702c-0.507-1.828-4.14-3.45-6.068-4.241c-0.622-0.255-1.156-0.822-1.594-1.545
					c0.779,0.372,1.963,0.718,3.402,0.421C206.923,435.452,207.105,435.815,208.503,436.962z"/>
				<path style="fill:#F0F0F0;" d="M208.83,430.267c0.363-0.212,0.6-0.396,0.6-0.396
					C209.223,430.011,209.025,430.142,208.83,430.267z"/>
				<path style="fill:#F0F0F0;" d="M156.546,432.542c0.049,0.1,0.098,0.154,0.098,0.154
					C156.605,432.644,156.578,432.593,156.546,432.542z"/>
			</g>
		</g>
	</g>
	<g>
		<path style="fill:#EDB44E;" d="M733.43,215.749c-0.907,0.063-1.731-0.244-2.303-1.117c-0.218-0.333-0.495-0.626-0.712-0.96
			c-0.53-0.813-0.701-1.711-0.571-2.669c0.174-1.275,0.773-2.424,1.973-2.776c1.243-0.364,2.667-0.401,3.758,0.632
			c2.007,1.9,1.957,4.148,0.165,6.175C735.279,215.556,734.579,215.732,733.43,215.749z"/>
		<path style="fill:#EDB44E;" d="M729.789,485.787c-0.907,0.063-1.731-0.244-2.303-1.117c-0.218-0.333-0.495-0.626-0.712-0.96
			c-0.53-0.813-0.701-1.71-0.571-2.669c0.174-1.275,0.773-2.424,1.973-2.776c1.243-0.364,2.667-0.401,3.758,0.632
			c2.007,1.9,1.957,4.148,0.165,6.175C731.638,485.594,730.939,485.771,729.789,485.787z"/>
		<path style="fill:#EDB44E;" d="M246.65,449.169c-0.907,0.063-1.731-0.244-2.303-1.117c-0.218-0.333-0.495-0.626-0.712-0.96
			c-0.53-0.813-0.701-1.711-0.571-2.669c0.174-1.275,0.773-2.424,1.973-2.776c1.243-0.364,2.667-0.401,3.758,0.632
			c2.007,1.9,1.957,4.148,0.165,6.175C248.499,448.976,247.799,449.153,246.65,449.169z"/>
		<path style="fill:#EDB44E;" d="M45.778,483.301c-0.907,0.063-1.731-0.244-2.303-1.117c-0.218-0.333-0.495-0.626-0.712-0.96
			c-0.53-0.813-0.701-1.711-0.571-2.669c0.174-1.275,0.773-2.424,1.973-2.776c1.243-0.364,2.667-0.401,3.758,0.632
			c2.007,1.9,1.957,4.148,0.165,6.175C47.627,483.108,46.927,483.284,45.778,483.301z"/>
	</g>
</g>
</svg>
